<svg xmlns="http://www.w3.org/2000/svg" enable-background="new 0 0 70 70" viewBox="0 0 70 70"><path d="M27.2,52.3c-6.4,0-12.9-2.5-17.8-7.4c-9.8-9.8-9.8-25.8,0-35.6c9.8-9.8,25.8-9.8,35.6,0l0,0c9.8,9.8,9.8,25.8,0,35.6
				C40,49.8,33.6,52.3,27.2,52.3z M27.2,4c-5.9,0-11.9,2.3-16.4,6.8c-9,9-9,23.7,0,32.8c9,9,23.7,9,32.8,0c9-9,9-23.7,0-32.8
				C39,6.3,33.1,4,27.2,4z"/><path d="M27.2 46.9c-5.1 0-10.1-1.9-14-5.8-3.7-3.7-5.8-8.7-5.8-14 0-5.3 2.1-10.2 5.8-14 7.7-7.7 20.2-7.7 27.9 0 3.7 3.7 5.8 8.7 5.8 14 0 5.3-2.1 10.2-5.8 14C37.3 45 32.2 46.9 27.2 46.9zM27.2 9.4c-4.5 0-9.1 1.7-12.5 5.2-3.4 3.4-5.2 7.8-5.2 12.5 0 4.7 1.8 9.2 5.2 12.5 6.9 6.9 18.2 6.9 25.1 0 3.4-3.4 5.2-7.8 5.2-12.5 0-4.7-1.8-9.2-5.2-12.5C36.2 11.1 31.7 9.4 27.2 9.4zM61.3 68c-.1 0-.2 0-.3 0-1.9-.1-3.6-.9-4.8-2.4L40.6 47.3c-.4-.4-.3-1.1.1-1.4.4-.4 1.1-.3 1.4.1l15.7 18.3c.9 1 2 1.6 3.4 1.7 1.3.1 2.6-.4 3.5-1.4.9-.9 1.4-2.2 1.4-3.5-.1-1.3-.6-2.5-1.7-3.4L46 42.1c-.4-.4-.5-1-.1-1.4.4-.4 1-.5 1.4-.1l18.3 15.7c1.4 1.2 2.3 2.9 2.4 4.8.1 1.9-.6 3.7-1.9 5C64.8 67.3 63.1 68 61.3 68z"/><g><path d="M19.6 33.2c-.3 0-.5-.1-.7-.3l-5-5c-.2-.2-.3-.4-.3-.7s.1-.5.3-.7l5-5c.4-.4 1-.4 1.4 0s.4 1 0 1.4L16 27.2l4.3 4.3c.4.4.4 1 0 1.4C20.1 33.1 19.8 33.2 19.6 33.2zM34.7 33.2c-.3 0-.5-.1-.7-.3-.4-.4-.4-1 0-1.4l4.3-4.3L34 22.8c-.4-.4-.4-1 0-1.4s1-.4 1.4 0l5 5c.4.4.4 1 0 1.4l-5 5C35.2 33.1 35 33.2 34.7 33.2zM24.9 35.8c-.1 0-.2 0-.3 0-.5-.2-.8-.7-.7-1.2l4.5-15.3c.2-.5.7-.8 1.2-.7.5.2.8.7.7 1.2l-4.5 15.3C25.7 35.5 25.3 35.8 24.9 35.8z"/></g></svg>